<?xml version="1.0" encoding="UTF-8"?>
<svg enable-background="new 0 0 3000 3000" version="1.1" viewBox="0 0 3e3 3e3" xmlns="http://www.w3.org/2000/svg">
 <style type="text/css">.st0{fill:#FFFFFF;} .st1{fill:#FF0000;} .st2{fill:#00E1FF;} .st3{fill:#0617ED;} .st4{fill:#FFF200;} .st5{fill:#8C3F14;} .st6{fill:#FFD0BB;}</style>
 <rect class="st0" width="3e3" height="3e3"/>
 <path class="st1" d="m1153.6 945.7c23-3.7 49.9 0.9 70.8 11.5 0.1 0.1 0.3 0.2 0.4 0.2 37.5-33.2 79.4-60.7 124.5-82.1 0.8-0.9 2-1.5 3.4-1.6 1.9-0.9 3.7-1.7 5.6-2.6 2.9-1.3 5.4 0.2 6.5 2.5 38.8-0.8 76.8-9.8 113.4-22.4 8.6-2.9 17.1-6.1 25.6-9.3 0.1-0.1 0.1-0.3 0.2-0.4 0.7-1 1.4-1.9 2.2-2.9 14.1-29.6 38.8-53.9 74.4-52.5 12.7 0.5 23.4 4.4 32.4 10.5 22.9-9.1 46-17.4 69.9-23.8 70.1-18.8 143.9-17.8 213.7 2.1 6.4 1.8 2.4 11.4-3.9 9.6-40.9-11.6-83.6-16.6-126.1-14.5-45.2 2.3-87.8 13.8-129.4 28.9 18.6-1.6 37.2-1.9 55.9-0.5 20.3 1.5 43.1 4 63.9 10.4 4.1-7.4 9.9-13.3 18.9-15 37.8-7 50 52.5 55.9 78 0.6 2.7-0.8 4.5-2.7 5.3-1.7 2.6-6 3.9-8.9 0.9-1.1-1.1-2.2-2.3-3.4-3.4 1.7 8.5 3 17.2 4.4 25.6 0.2 1.2 0.4 2.5 0.6 3.7 29.8-5.6 60.6-11.5 86.7-27.7 22.6-14 50.5-42.6 38.9-71.8-8.8-22-35-33.5-55-42.7-18-8.3-36.5-15.5-55.4-21.3-2 0.5-4.3-0.1-5.6-1.7-4.3-1.3-8.6-2.5-12.9-3.6-51.6-13.5-105.8-17.7-158.9-12-97.5 10.5-189.7 54.9-259.9 123.2-4.8 4.7-11.1-3.6-6.3-8.3 43-41.8 94.2-74.9 150-96.9 91.7-36 193.9-40.2 288.3-13.1 10.2-66-12.2-134.3-56.5-184.1-47.4-53.2-117-83.6-187.3-89.6-66.7-5.7-134.2 9.5-194.4 38.1-115.8 55-204.4 160.9-240 283.7 0.6 2 0.2 4.4-1.8 5.9-0.9 2-2.6 2.6-4.4 2.4-45.2 24-84 65-95.6 115.8-9.9 43.5 0.5 91.9 31.6 124.4 8.3-37.3 29-72.2 70.3-78.9z"/>
 <path class="st0" d="m1649.9 714.2c4.4 0.1 9.1-2.6 13.4-3.4 4.5-0.8 9.2-0.7 13.8-0.7 10.9 0 21.8 0.8 32.7 0.9 17.2 0.2 34.3 1.2 51.1 4.3 28.3-17.8 45.9-48.6 43.4-82.2-3.8-49.9-50.6-87.1-104.7-83-54 4.1-94.8 47.9-91 97.8 2.1 27.7 17.4 51.4 39.9 66.4 0.5-0.1 1-0.1 1.4-0.1zm73.8-101.2 21.9-38.7 39.4 97.7-22.4 20.6-19.8-77.7-18.1 34.3-25-36.1-25.9 72.9-23-21.4 34.7-99.1 38.2 47.5z"/>
 <path d="m1552.5 1027.3c4.5 7 10.5 11 16.9 11.2s12.7-3.4 17.6-10.1c5.2-7.1 8.2-16.6 8.6-27 0.6-17.8-7-33-17.8-37.4-1.9-0.8-3.9-1.2-5.9-1.3-13.8-0.5-25.5 16.2-26.2 37-0.3 10.4 2.1 20.2 6.8 27.6z"/>
 <path class="st2" d="m1525.4 994c-0.3 8.2 0.1 16.3 1.2 24.1l0.1 0.1c16.8 18.5 36.6 35.1 58.3 48.6 6.2-3.2 12-8.3 17.1-15.1 9.6-13 15.2-30.6 15.8-49.5 1.1-32.8-13.2-60.8-33.4-69.1-3.6-1.5-7.4-2.3-11.3-2.5-12.3-0.4-24.3 6.3-33.6 19-5.6 7.6-9.8 16.7-12.5 26.7-1 5.8-1.5 11.7-1.7 17.7zm46.8-37.5c17.2 0.6 30.6 20.8 29.8 45.1-0.4 11.6-3.9 22.4-9.8 30.4-6.2 8.4-14.3 12.9-22.9 12.6-2.8-0.1-5.5-0.7-8.1-1.7-5.3-2.2-10.1-6.4-13.9-12.4-5.4-8.4-8.1-19.5-7.8-31 0.8-24.2 15.5-43.5 32.7-43z"/>
 <path class="st3" d="m1805.3 825.5c0.7 1.2 1.4 2.3 2.1 3.5-0.2-0.4-0.3-0.8-0.5-1.2-0.4-0.8-0.8-1.7-1.2-2.6-0.1 0.2-0.3 0.2-0.4 0.3z"/>
 <path class="st0" d="m1756.8 1252.6c-10 3.5-20.5 5.5-30.7 5.4-49 10.5-95.4-14.1-143.6-20.3-2.3 3.3-4.1 6.7-5.5 10.2 55.2 26.9 119.1 32.7 178.1 15.4 0.8-3.5 1.3-7.1 1.7-10.7z"/>
 <path class="st0" d="m1591.1 1070.5c9.7 5.7 19.7 10.7 30 15.1 22.1-16 37.9-48.8 39.2-87.1 1.5-46.6-18.9-86.6-47.8-98.4-5.2-2.1-10.7-3.4-16.4-3.5-17.8-0.6-34.9 9.1-48.2 27.2-4.3 5.9-8.1 12.4-11.2 19.5 10.2-12.6 23.1-19.2 36.6-18.8 29.4 1 52.2 36 50.8 78-0.7 20.2-6.7 39-17 53-4.8 6.3-10.2 11.4-16 15z"/>
 <path class="st4" d="m1573.1 1617.6c3.8 15.2 12.4 28.2 24.3 36.6 11.7 8.3 25.3 11.1 38.1 7.9s23.5-12 30-24.8c6.6-13 8.2-28.5 4.5-43.7-5-20.2-18.5-35.6-34.6-42.3-8.8-3.6-18.4-4.6-27.8-2.3-12.8 3.2-23.5 12-30 24.8-6.7 13.1-8.3 28.6-4.5 43.8z"/>
 <path class="st3" d="m1667.7 1433.3c26.4 21.3 50.8 45 71.8 71.6 1.5 0.7 2.6 2.1 2.9 3.7 3.6 4.7 7.2 9.5 10.6 14.3 24.4 34.8 42.4 71.5 56.4 111.2 1.7-3.8 3.4-7.6 5.1-11.4-26.8-74.7-68.6-143-122.9-201-7.7 4.4-15.7 8.2-23.9 11.6z"/>
 <path class="st4" d="m1813 1562.5c-5-20.2-18.5-35.6-34.6-42.3-0.1-0.1-0.3-0.1-0.4-0.2 13.5 23 25.4 46.8 35.6 71.5 2-9.2 1.9-19.2-0.6-29z"/>
 <path d="m1835.3 1228.1c3.3 1.3 6.4 2 9.4 2.3l0.3-0.6c2.2-4.2 7.8-3.4 9.6-0.4 14.1-4.3 23.4-20.6 27.8-36.1-9.4 8.2-20.2 15-32.1 19.8-43.3 17.5-89.2 3.2-127.2-20.1-32.5-19.9-60.9-49-69.6-85.8-0.4 0-0.8-0.1-1.2-0.2-48.9-12.6-94.1-40.6-128.9-77.1-13.8 26.8-16 58.4-3.9 86.4 9.9 22.9 39.3 59.9 68.4 50.5 5.2-1.7 8.9 4.6 6.4 8 13.7 35.8 51.9 55 88.9 43.4 6.3-2 10.4 7.5 4 9.6 8.8 14.1 22.4 19.8 37 20.3 1.5-0.3 3-0.7 4.5-1.1 1.8-0.5 3.4-0.1 4.6 0.8 8.4-0.9 16.8-3.2 24.6-6.4 0.9-1.3 2.5-1.9 4.1-1.8 3.6-1.6 6.9-3.4 10.1-5.3 5.3-3.2 11.1 3.7 7.3 7.5 13.8 16.7 36 4.6 47.9-8.3 0.2-0.2 0.4-0.4 0.7-0.6 0.6-3.3 3.6-6.3 7.3-4.8z"/>
 <path class="st3" d="m1489.6 1419.4c1.8 2.9 3.5 5.8 5.1 8.8 1.9 0 3.7 0.8 4.7 3 36.1 79.2 54.9 165.1 55.8 252 29 10.6 57.2 23.3 84.4 38 20.7-24.4 40.3-49.6 58.7-75.7 0.4-0.5 0.8-0.9 1.2-1.2-18-54-40.9-109.4-74.5-155.5-31.2-42.8-80.5-78-135.4-69.4zm188.4 172.3c4.2 17.1 2.4 34.7-5.1 49.5-7.6 15-20.2 25.3-35.4 29-10.9 2.7-22.3 1.8-32.9-2.6-4.1-1.7-8.1-3.9-12-6.6-13.6-9.6-23.3-24.3-27.6-41.4-4.2-17.1-2.4-34.7 5.1-49.5 7.6-15 20.2-25.3 35.4-29 31.2-7.7 63.7 14.9 72.5 50.6z"/>
 <path class="st1" d="m1586.5 1318.5c14.4 27.5 42.8 35.8 72.2 33 45-4.4 80.7-35.5 93.6-76.6-59.3 15.6-122.7 9.9-178.1-16.8-3.9 20.1 2.8 42.3 12.3 60.4z"/>
 <path class="st1" d="m1967.6 965.6c-28.1-20.6-53.5-44.5-78.9-68.3-21.4 8.1-44.6 13-65.3 16.9 3.7 25.8 5.2 51.8 0.5 77.5 15.1 0.5 30 3.9 44.4 11.5 39.1 20.5 57.6 67.1 54.3 109.6-1.9 25-11.7 48.6-27.3 67.3 0.2 0.6 0.2 1.3 0.1 2.1-2.4 17.9-8 36.8-22.7 48.6-6.3 5.1-13.8 8.3-21.5 9.4-28.2 52.8-60.9 104.2-106.1 144.1-13 11.5-27.1 22-42.1 31.1 0 1-0.2 2-0.6 2.8 7.8 8.4 15.3 17.1 22.6 25.9 23.9-32.5 47.8-65.1 71.5-97.8 81.8-112.8 162.2-226.6 241.3-341.3-25.6-7.3-49.7-24.2-70.2-39.4z"/>
 <path class="st1" d="m1731.1 1511c-21.8-27.4-47-51.6-74.6-73.3-10.1 3.6-20.4 6.5-30.8 8.7-7.3 1.5-14.5 2.5-21.8 3.1 8.4 7.6 16.2 16 23.1 24.7 13.9 17.5 26 36.7 36.7 56.8 23.1 11.3 55.8 4.2 67.4-20z"/>
 <path class="st1" d="m1221.4 1542.8c1.8 27.6 16.3 53 37.2 71.1 24.5 21.2 56.4 30.5 88.5 30.5 70.8-0.2 131-42.5 184-85.1-8.3-38.3-20.3-75.8-35.8-111.9-1.5-0.3-2.9-1.1-3.7-2.9-16.3-33.4-40.2-62.4-69-85.8-74.9-61-168.4-78.4-262.6-79.7h-1.3c-43.2-0.5-86.5 2.3-128.2 5.8 38.4 42.6 40.1 106.7 31.8 161-2.7 17.4-5.9 34.9-9.8 52.1-1.8 8.2-3.9 16.5-6.9 24.4 58-11.5 116.8-10.5 174.4 3.7 2.1 0.5 3.4 2 3.9 3.7 1.6 1.2 2.5 3.3 1.2 5.6-1.5 2.5-2.7 5-3.7 7.5z"/>
 <path class="st0" d="m2248.4 714c-14.4 27.5-37.9 52.1-68.7 60.3-3.2 0.8-6.4 1.5-9.7 1.9 9.8 27.4 32 54.3 64.1 51.4 29.8-2.6 51.1-26.5 64.9-51 14.9-26.4 25.6-55.4 12.7-84.8-10.2-23.1-26.5-50.9-50.1-62.8 6.6 28.6 0.3 59.3-13.2 85z"/>
 <path class="st0" d="m1849.2 733.4c8 2.7 16 5.5 23.8 8.6 39 15.5 104.2 42.7 83 96.5-10.4 26.5-31.9 43.2-56.9 54.4 38.4 36.1 78.5 74.1 126.8 96.1 5.6 2.6 11.9 4.8 18.3 6.4 2.6-3.4 7.1-1.6 8.5 1.6 16.9 2.3 34.1-1.1 44.2-17 17.2-26.9-15.8-50.3-35.1-62.6-5.6-3.6 0.8-11.8 6.4-8.2 14.6 9.3 31.7 21.7 39.4 37.7 54.2-15.6 86.7-63.5 114.8-109.3-31.2-3.6-52.9-30.5-62.6-58.9-0.2-0.7-0.3-1.3-0.3-1.9-23.1 0.2-46-9.4-60-28.5-11.5 8.3-25.9 12.9-40.1 13.3-32.1 0.8-60.3-16.1-84.7-35.3-5.2-4.1 1.1-12.4 6.4-8.2 26.5 20.9 61.4 41.7 96.4 30.2 34.5-11.3 44.3-48.4 24.2-77.3-8.2-11.7-19.4-20.9-30.7-29.3-13.9-10.3-28.3-20.5-43.8-28.4-27.9-14.1-63.2-19.8-89 1.9-5.1 4.3-11.4-4-6.3-8.3 10.9-9.2 23.9-14.1 37.3-15.8 0-0.6 0.1-1.2 0.3-1.8 2.9-7.8 4.6-15.8 5.3-24.1 0.6-6.7 10.9-5.4 10.3 1.2-0.7 8.2-2.4 16.2-5.1 24 12.3 0 24.8 2.5 36.4 6.8 18.4 6.9 37 17.6 53.8 30 21.8-25.8 49.4-63.6 25.2-96.3-17.7-24-52.2-30.4-80-25.5-31.3 5.6-54.7 26.8-74.2 50.6-42.6 51.9-73.6 112.6-92.1 177.1 0.2 0.2 0.2 0.3 0.1 0.3z"/>
 <path class="st0" d="m2113.6 545.6c7.7 33.9-14.2 63.6-34.9 88.1 6.5 5.2 12.6 10.6 18.3 16.1 14.3 13.9 25.6 32.2 26.3 51.9 32.7-24.6 68.9-54 71.4-98 1.2-22.2-8.5-41.8-26.9-54.3-17.3-11.6-38.2-15.1-58.7-16.5 1.9 4 3.5 8.2 4.5 12.7z"/>
 <path class="st0" d="m2126 712.6c-1.2 0.9-2.5 1.2-3.6 1-0.3 1.7-0.7 3.5-1.2 5.2-2.6 8.9-7.4 16.5-13.6 22.8l0.3 0.3c16.6 22.6 47.5 29.6 73.5 20.9 26.5-8.9 46.7-31.3 58.9-55.8 12.6-25.5 18.4-56.2 9.1-83.7-7.7-22.8-25.7-41.9-48.7-48.6 2.7 7.2 4.2 15 4.4 23 1.1 51.9-41.4 86.7-79.1 114.9z"/>
 <path class="st0" d="m1055.6 1379.7c-2-31-11.4-62.4-31.7-86.4-17.6-20.7-46.2-35.7-73-28l0.3 0.3c36 35.2 38.5 86.7 39.9 134.2 1.5 51.6 2.1 103.9-14.1 153.4 15.5 8.2 35.1 0.6 46.1-12.2 12.4-14.4 16.8-33.7 20.5-51.8 7.3-35.8 14.5-72.7 12-109.5z"/>
 <path class="st0" d="m944.3 1273.3c-38.5-13.2-78.4-21.7-119-25.1-35.4-3-71.6-2.7-106.8 2.7-33.6 5.1-64.9 17.3-86.1 45.1-21.9 28.6-33.8 65.9-41.2 100.7-6 28.6-18.5 80.6 13.9 98.1-0.1-0.9-0.1-1.9-0.1-2.8-1.1-37.9 8.2-77.3 16.9-114 1.5-6.5 11.9-5.2 10.3 1.2-7.7 32.3-14.8 65.7-16.7 99-1.7 30.6 6.7 66.6 38 78.4-6.4-28.3 1.2-57.8 8.6-85.2 1.8-6.4 11.3-2.4 9.6 3.9-7.7 28.3-16.2 60.8-5.1 89.3 8.6 22 28.5 36.5 50.7 42.7 1.5-0.5 3.1-0.3 4.4 1.1 7.3 1.6 14.7 2.4 22.1 2.2 30.7-0.8 61.8-18.5 66.9-50.9 4.7-30.1-24.2-60-54.5-46.1-6.1 2.8-10.1-6.8-4-9.6 26.4-12.2 58.7 4.1 67.1 31.4 7.9 25.5-4.1 54-25.1 69.4-18.5 13.6-42.3 18.1-64.9 15.3 12.4 19.4 26.6 38.5 48.1 48 24.3 10.8 48.2 1.9 69-11.9 44.2-29.1 83.7-66.6 118.1-106.7 1-1.1 2.1-1.7 3.3-1.8 14.7-46 14.4-94.8 13-142.6-1.2-45.5-1.5-97.9-36.5-131.8z"/>
 <path class="st5" d="m736.9 2370.4c3.4-70.8 21.3-140.7 41.7-208.3 0.6-2.1 1.3-4.2 1.9-6.3-36.1 57.1-58.8 122.5-64.5 190-3 35.2-1.2 70.7 5.8 105.4 3.5 17.5 7.5 36.4 16.1 52.2 7.9 14.5 25.4 28.4 42.1 21.2-36.3-41.9-45.7-99.6-43.1-154.2z"/>
 <path class="st5" d="m786.7 2135.4c18.3-60.8 37.8-122.5 70.4-177-6.2-7-16.9-5.6-24 0.1-6.7 5.4-10.4 13.7-13.9 21.3-8 17.7-15.5 35.6-23.2 53.3-7.5 17.2-15.8 34.3-22.3 52-6.1 16.4-9.4 44.4 13 50.3z"/>
 <path class="st5" d="m975.7 2360.4c-10.9-14.6-21-29.7-30.1-45.5-18.2-31.7-32-66.4-36.6-102.9-4.8-38.7 1.6-77.5 13.9-114.2 13.1-39.2 32.3-76.1 51.9-112.4 2.7-5 5.8-10.6 9.8-15-36.3-19.7-80.7-20.9-118.4-3.4-0.9 0.4-1.8 0.5-2.5 0.5-18.8 32-32.4 66.7-44.4 101.7-12 35.2-23.3 70.8-33.9 106.5-18.5 62.6-34.3 127.2-38 192.6-3.2 57.5 6.8 120.3 51.5 160.9 42.4 38.5 103.3 37.4 147.4 2.1 44.7-35.8 56.9-96.9 45-150.7-5.8-6.5-10.8-13.8-15.6-20.2z"/>
 <path class="st3" d="m2025 2121.3c12.7-31.8 25.6-63.6 35.4-96.5 16.3-54.6 23.3-114.1 5-168.9-1.2-1.1-1.9-2.7-1.6-4.5-0.6-1.7-1.3-3.4-1.9-5.1-0.5-1.2-0.5-2.3-0.2-3.3-9.4-7.6-23.2-2.7-34.1-1.7-9.3 0.9-18.3-0.5-27-4-20.1-8.3-34.9-25.3-50.9-39.4-31.4-27.6-67.5-49.7-106.4-65.1-38.3-15.2-80.2-25.4-121.3-16.9-39.1 8.1-76.1 28.7-110.5 48.3-36.1 20.6-70.5 44.1-103 69.9-5.2 4.2-11.6-4.1-6.3-8.3 37.6-29.9 77.8-56.6 120.1-79.5 35.9-19.5 74.6-39.6 116-43.4 25.9-2.4 52.1 1.7 77.3 9.1l-15.9-66.6c-0.4-1.9 0.1-3.3 1.1-4.2-13.8-40-31.6-76.9-56.1-111.9-2.2-3.1-4.4-6.2-6.7-9.3-13.4 22-42.6 31.1-67.2 24.7 16.2 32.7 29.1 67.3 40.1 100.9 1.3 3.9-1.9 6.9-5 7.2-18.8 26.5-38.7 52.2-59.8 76.9-0.7 0.8-1.4 1.3-2.2 1.5-1.2 1.6-3.2 2.4-5.6 1.1-28.9-15.8-58.8-29.3-89.8-40.5-2.8-1-3.6-3.4-3-5.6-0.3-0.7-0.5-1.5-0.6-2.4-0.3-38.1-4.2-76-11.5-113.2-25.5 20.4-51.8 39.8-80.6 55.2-49.4 26.3-109.9 39.6-163.7 18.6-34.9-13.7-63.5-43.2-74-78.7-3.8 24.4-0.2 50.1 0 74.7 0.3 33.2-9.5 63.4-20.5 94.4-11.6 33-20.5 66.4-22.8 101.4-4.2 63.9 13.7 129 57.5 176.7 4.5 4.9-3.8 11.2-8.3 6.3-23.7-25.8-40.5-57.1-50.2-90.8-12.6 17.1-24.2 34.8-34.7 53.2-3.1 5.4-11.8 2.3-10.1-2.9-32 4.2-63.3 12.2-93.5 23.8-0.2 0.1-0.4 0.3-0.7 0.4-2.1 0.8-4.2 1.6-6.3 2.3-3 1.1-5.4-0.5-6.5-2.7-1.5-0.6-2.7-1.9-2.9-3.9-0.6-5.1-1.1-10.4-3.1-15.1-2.2-5.3-7.1-10.6-12.6-10.7-1.2 2.2-4.1 3.8-6.9 2.7-6.7 5.5-10.4 16.1-14.3 23.4-9.7 18.3-19.3 36.7-27.9 55.6-16.9 37.1-30.6 76.4-33.2 117.4-4.4 69.6 28.5 133.7 69.8 187.5 2.1 2.7 4.2 5.6 6.3 8.4 2.4 0 4.9 1.3 5.6 4.1 0.3 1.1 0.5 2.2 0.8 3.3 2.1 2.1 4.3 4.1 6.8 5.7 8.7 5.7 19 4.4 28.5 1.3 16.9-5.5 33-13.4 49.8-19.1 34.7-11.7 70.3-20.1 105.5-30 131.2-36.9 250.4-108.4 342.7-208.9-60.3 1.5-120.9-7-178.7-25.8-6.4-2.1-2.4-11.7 3.9-9.6 119.1 38.6 250.6 32.6 365.8-16.1-0.1-0.1-0.1-0.3-0.2-0.4-3.2-5.9 6.5-9.9 9.6-4 38 70.9 97.3 129.2 168.7 166.1 1.2-6.5 11.4-5.2 10.3 1.3-1.5 8.6 5 15.2 12.9 17.4 8.4 2.3 16.9-1.7 23.6-6.5 13.5-9.9 24.1-24.7 33.2-38.6 17.8-27 30.1-57 42-86.7z"/>
 <path class="st3" d="m1781 817.4c0.5-0.7 1.1-1.4 1.6-2.2-0.1 0-0.3-0.1-0.4-0.1-0.2 0-0.3-0.1-0.5-0.1-0.2 0.8-0.4 1.6-0.7 2.4z"/>
 <path class="st5" d="m2355.3 1876.2c-5.5 0.6-11 1.9-16.5 3-17.7 32.3-36.2 64.2-55.4 95.6-28.2 46.1-58 91.2-89.4 135.1 10-2.1 19.4-12.3 26.2-18.5 10.2-9.3 19.5-19.5 28.2-30.2 16.6-20.4 30.8-42.6 44.3-65.2 14.5-24.3 28.1-49.2 43.2-73.1 7-11.1 14.4-22 22.2-32.6 1.1-1.5 5.5-6.4 5.7-8.5 0.8-5.8-4.5-6-8.5-5.6z"/>
 <path class="st5" d="m2326.5 1875.7c-19.9-21.2-32.1-48.6-53.2-68.7-19.9-18.9-46.1-30.5-73.4-33.3-54.1-5.5-105.2 27.9-125.1 77.8 11.2 33 13.9 68.1 10.6 102.7-3.6 37.4-14.2 73.9-26.8 109.2-13.6 37.8-28.1 76-45.6 112.2-14 29-32.7 64.9-61.1 82.2-2.2 1.4-4.6 2.5-6.9 3.5-0.5 7.9 9.8 14 15.4 17.9 7.2 5.1 14.8 9.4 22.9 13 12.7 5.8 26.1 9.5 39.8 11.5 0.5-3.1 3.8-5.8 7-4.3 0.1-0.2 0.2-0.3 0.4-0.5 25.7-29 50.8-58.5 75-88.7 83.8-104.3 158.4-215.9 222.9-333.1-0.7-0.4-1.3-0.9-1.9-1.4z"/>
 <path class="st5" d="m2173 2139c-41.6 56.5-85.7 111.1-132.2 163.6 0 0.6-0.1 1.3-0.3 2-0.3 0.7-0.5 1.4-0.8 2.1 7.7 5.6 15.7 10.7 24.2 15.1 39.7-56.6 81.4-111.8 124.9-165.5-5.2-5.8-10.4-11.5-15.8-17.3 0.1 0 0.1 0 0 0z"/>
 <path d="m1330.8 1027.5c5.2 14.6 19.4 25.2 34.1 25.4 1.4-0.7 3.1-0.8 4.5-0.3 4.6-0.6 9.2-2.3 13.5-5.3 8.2-5.7 14-15.2 14.8-25.2 0.9-11.5-5.9-21.8-12.3-30.7-23.1-32.1-36.2-67-31.7-106.6-43.3 20.5-83.4 46.8-119.5 78.3 27.2 20.1 35.8 58 46.4 88.3 7.3 20.7 17.9 46.5 39.7 55.4 13.3 5.4 26.6-0.7 34.1-12.2 6-9.3 7.5-20.5 7.5-31.4-18.2-1.5-34.4-14.5-40.6-31.8-2.3-6.2 7.2-10.3 9.5-3.9z"/>
 <path class="st6" d="m1260.7 1203.1c5.3-4.2 11.6 4.1 6.3 8.3-0.1 0-0.1 0.1-0.2 0.1 6.7 28.8 20.5 54.5 38.4 77.3 71.6 20.5 136.5 58.3 178.4 121.1 39.5-7.9 77.5 5.8 108.4 29.6 16.5-0.4 33-2.8 49.3-7.7 93.5-27.8 153.8-109.6 198.3-191.8-1.2-0.2-2.3-0.4-3.5-0.7l-0.3 0.3c-16.6 18-47.4 31.3-65.2 7.1-1 0.5-2.1 1-3.1 1.5-3.1 63-55.2 113.9-118.7 114.1-15.4 0-31.6-2.5-45.2-10.1-13.1-7.3-21.8-19.4-28.1-32.7-13.9-28.9-20.4-65.1 1.6-91.9 2.3-2.8 5.9-2.2 7.9-0.2 37 5 74.3 22.1 111.8 23-7.7-4.5-14.5-11.1-19.8-20.4-39.1 7.2-78.1-13.8-92.4-52.2-29.6 3.9-57.3-25.3-70.3-49-17.7-32.4-17-72 0.3-104.3 0.7-1.2 1.6-2 2.6-2.4-0.4-2.1 1-4.2 3-5.2-0.9-7.6-1.3-15.3-1-23.2 0.9-28.1 9.3-54.3 23.6-73.8 14.6-19.8 33.6-30.4 53.5-29.8 40.6 1.3 72.1 50 70.2 108.4-1.3 38.5-16.8 71.8-38.8 89.6 7.9 3.1 15.9 5.7 24 7.8-0.5-4.4-0.8-8.9-0.8-13.4 0.1-6.7 10.4-5.4 10.3 1.2-0.5 50.3 41.1 87.4 82.5 108.8 37.3 19.2 80.7 26.1 118 3.1 34.8-21.4 53.7-61.1 50.6-101.6-3.1-42.1-29.2-81.6-72.4-90-6.9-1.3-13.7-2-20.5-2-1.4 0.6-3 0.5-4.3 0-34.4 1-67.5 16.4-98.4 31-6.1 2.9-10-6.7-4-9.6 5.1-2.4 10.3-4.8 15.6-7.2-3.3-8.9-5.3-19.2-5.9-29.9-0.9-18 2.2-35.7 8.8-49.9 6.8-14.6 16.5-23.8 27.3-25.9 7.2-1.4 14.5 0.5 21 5.6 12.7 9.9 21.3 30.9 22.6 54.7 0.4 7.3 0 14.7-0.9 21.8 4.1-0.6 8.1-1 12.2-1.2 5.4-28.7 2.9-57.8-1.9-86.6-2.3-13.8-4.5-27.9-8-41.4-8.4-5.2-17.7-7.1-27.2-0.3-12.6 9.1-21.7 25.7-28.5 39.3-1.9 3.7-6.3 3.6-8.7 1.5-1.7-0.9-2.9-2.6-2.6-5 2.3-23.1 6.4-45.8 12.5-68.2 1.1-4 2.3-8.3 3.8-12.6-21.4-6.4-44.7-9-66.3-10.2-19.5-1.1-39.1-0.5-58.4 1.9 15.6 18.6 24.4 44.8 30.5 67.6 1.4 2.5 2.8 5 4.1 7.6 1.9 3.5-0.7 6.3-3.8 6.8-1 3.2-4.7 5.6-7.9 2.7-22-19.7-45.3-40.8-74.7-48-26.6-6.5-57.7 1-70.1 27.6-2.2 4.7-8.4 3.4-9.8-0.2-0.8-0.9-1.2-2.2-0.8-3.9 1.1-5.3 2.6-10.7 4.4-16-43.8 16.3-88.9 28.6-135.8 29.6-3.4 26.5 1.1 53.4 13.5 77.1 10.7 20.3 33.2 38.5 30.2 63.6-2.2 18.5-17.3 34.9-35.7 38.1-0.1 18.4-4.2 37.4-19.7 49.1-16.4 12.4-36.8 7.8-51.3-5.1-34-30.3-32.6-81.6-57.2-117.7-16.8-24.7-46.6-34.3-75.6-34.1-18 0.1-35.7 5.9-48.8 18.7-20 19.4-26.9 49.3-29.5 76-5.5 56 17.5 109.5 65.1 140.4 26.7 17.7 76.4 36.4 105.5 13.4zm-67.7-134.4c-6.6 0.2-8.1-10.1-1.4-10.3 20-0.7 38.7 5.5 53.8 17.7-13.3-39.8-55.5-64.7-98.4-52.8-6.4 1.8-10.4-7.8-4-9.6 55.5-15.4 111.7 22.2 116.7 80 0.6 6.7-9.7 8.1-10.3 1.4 0-0.5-0.1-0.9-0.2-1.4-0.5-0.3-1-0.7-1.4-1.2-13.9-15.8-33.7-24.5-54.8-23.8z"/>
 <path d="m1257.6 1217.3c-21.7 11-49.3 7.4-73.9-1.6l-0.3 0.3c-15.8 13-23.1 32.6-20.1 52.5 41.7 0.9 84.7 5.8 125.9 16.1-14.3-20.5-25.3-42.9-31.6-67.3z"/>
 <path class="st2" d="m1764.4 1002c3-1 6.1-2 9.1-2.9 1.3-6.2 1.8-12.9 1.5-19.5-1.1-20.1-9.5-36-20.6-38.7-1.9-0.5-3.9-0.5-5.8-0.1-6.3 1.2-12.1 6.8-16.2 15.7-2.5 5.4-4.3 11.5-5.2 18.2-0.2 3.7-0.2 7.5 0 11.2 0.5 10.3 2.5 20.1 5.7 28.6 3.2-1.4 6.4-2.8 9.6-4.1-1.2-1-2.2-2.2-3.2-3.6-3.4-4.8-5.4-11.5-5.8-19-0.8-15.8 6.2-30.2 15.7-32 3.2-0.6 6.5 0.2 9.4 2.5 5.5 4.3 9.1 12.9 9.6 23 0.3 7.3-1 14.6-3.8 20.7z"/>
 <path class="st3" d="m1512.9 849.5c-0.1 0-0.2 0.1-0.3 0.1 0 0.1 0 0.1-0.1 0.2 0.2-0.1 0.3-0.2 0.4-0.3z"/>
 <path class="st0" d="m1796.2 993.7c1.1-7.1 1.4-14.5 1-21.9-1.5-28.7-13.7-51.5-29.7-55.4-2.8-0.7-5.7-0.7-8.5-0.2-9.2 1.8-17.6 9.9-23.6 22.7-1.1 2.4-2.1 4.9-3.1 7.6 4.4-6.3 9.9-10.3 15.7-11.4 5.3-1 10.6 0.4 15.4 4.1 9.2 7.2 15.5 22.3 16.4 39.5 0.3 6.3-0.1 12.7-1.1 18.8 5.8-1.5 11.6-2.8 17.5-3.8z"/>
 <path d="m1752.5 961.2c-0.9-0.2-1.9-0.3-2.9-0.1-6.9 1.4-12 12.9-11.4 25.8 0.3 6.4 2.1 12.1 4.8 16.1 1.8 2.5 3.8 4.1 6 4.6 2.5-1 5.1-2 7.7-2.9 1.2-1.3 2.4-3 3.4-5.1 2.3-5 3.4-11.3 3.1-17.7-0.5-10.7-5-19.3-10.7-20.7z"/>
 <path d="m2371.2 1869.5c-8.6-8.4-25.8-2.5-36.4-0.1v-0.1c-21.7-23-34.7-53-58.7-73.9-22.4-19.5-51.8-31.1-81.4-32.6-52.4-2.6-101.4 27.8-124.6 73.9-12.5-11.6-28.1-7-43.9-5.7-24.9 2.1-43.5-16.9-60.3-32.5-31.3-29.1-67.1-53.1-106.3-70.3-10.7-4.7-21.8-9-33.1-12.8 0.2-0.7 0.2-1.5 0-2.4-4.9-20.5-9.8-41-14.6-61.5 0.3-0.2 0.5-0.5 0.7-0.8 0.7-0.5 1.2-1.1 1.6-2.1 3.7-8.2 7.4-16.3 11.1-24.5 1.1-2.4 0.3-4.4-1.3-5.6-1.7-4.9-3.6-9.7-5.4-14.5 5.2-13.4 6.1-28.6 2.4-43.5-6.6-26.7-26.6-46.1-49.3-50.9-12.3-20-25.8-39.2-40.3-57.6 0.7-0.3 1.3-0.8 1.9-1.6 84.8-115.2 168.1-231.5 250.1-348.7 21.9-31.4 43.7-62.8 65.4-94.3 1.6 0.3 3.2 0.5 4.8 0.7 23.5 2.5 51.2-8.9 57.2-33.9 1.5-6.1 1.5-11.9 0.3-17.3 58.7-16.5 93.4-69.7 123.5-118.8 30.7-2.2 55.1-25.5 70.4-50.9 17.1-28.3 30.8-61.5 18.4-94.3-6.1-16.1-16-31.9-26.3-45.7-10.2-13.8-22.8-25.5-39.3-30.9-10.4-27.1-34-48.4-62.8-53.3-4.9-8-11.4-15-19.4-20.7-21.5-15.2-47.9-18.9-73.6-19.9-12.8-15.4-33.3-24.6-53-27.5-74.2-10.9-122.9 57.2-156.4 113.1-20.5 34.2-36.9 70.6-48.8 108.6 5.2-55.6-11.3-112.2-43.6-157.9-40.7-57.6-105.7-95-174.1-109.2-135.3-28.1-277.1 33.6-370.4 130.4-52.7 54.7-91.9 122.1-112.6 195.2-48.7 25.8-89.2 69.3-101.7 124.1-11.2 49.1 2.8 103.2 39.6 138-1 6.6-1.7 13.1-2 19.6-3.1 55.3 20.5 108 66.5 139.5 7.9 5.4 17.3 10.7 27.6 15.3-15.4 14.8-23 35.8-20.3 57h-8.7c-41.2 0.2-82.4 3.3-123.4 6.8-0.5-0.4-0.9-0.9-1.4-1.3-22.1-18.8-54.5-28.3-81.5-14.6-0.4 0.2-0.7 0.4-1 0.6-71.7-22.7-150.4-31.2-224.6-18.5-35.2 6-67.2 20.4-89 49.6-23.1 31-35.5 70.7-43 108.2-6.8 34.1-16.3 85.9 21.7 105.5 1.7 0.9 3.2 0.7 4.4 0 4 27.5 18.7 54.1 46.9 62.7 1.4 0.4 2.6 0.3 3.7-0.2 9.3 24.4 30.5 42 55.6 49.4 1 0.3 2.1 0.6 3.1 0.8 14.3 23 29.9 46.2 54.8 58.7 23.5 11.8 48.3 7.9 70.6-4.5 24.2-13.4 46.1-31.8 66.8-50 21.5-18.8 41.5-39 60.3-60.4 1 0.6 2.2 0.8 3.4 0.7 22.1 11.8 49.1 0.9 63.2-18.9 2.1-3 4-6 5.6-9.2h0.3c56.7-12.1 113.9-12 170.3 0.7 0 2.1 0 4.3 0.1 6.4-9.9 25.5-8 53.5-6.7 80.6 0.8 17 1.1 33.9-1.8 50.8-3.4 19.5-10.1 38.2-16.7 56.7-21.3 60.2-32.6 123.8-18.1 186.6-12.6 16.7-24.2 34-35 52-36.6 4.1-72.3 13-106.5 26.5-2-13-6.5-27.9-20.9-31.3-4.4-1-8.1-0.6-11.5 0.8-38.3-22.2-85.4-25.5-126.3-8.5-0.1-0.3-0.3-0.6-0.5-0.9-9.8-15.8-31.8-12.7-43.4-0.8-8 8.2-12.3 19-16.8 29.3-6.2 14.3-12.5 28.6-18.7 42.9-6 13.7-11.9 27.4-17.9 41.1-4.8 11-9.7 22.2-11.3 34.2-2.1 16.6 4 33.5 18.1 41.5-34 51.6-57.4 110-67.3 171.1-9.7 59.8-8.3 128.2 14.7 185.1 10 24.7 36.2 48.5 63.2 34 1.7 1.6 3.3 3.3 5.1 4.9 42.1 38.2 102 40.4 149.2 10 52-33.6 71.2-97.6 62.1-156.6 2.8 1.6 5.7 2.8 8.9 3.6 17.1 4.1 33.9-5.1 49.3-11.3 19.5-7.9 39.6-14.3 59.8-20.2 39.4-11.4 79.4-20.6 118.2-33.9 36.6-12.6 72.2-28.1 106.4-46.4 75.7-40.5 144-94 201.4-157.9 0.3-0.3 0.5-0.7 0.7-1 62.3-3.2 124-17.2 181.8-41.7 40.4 70.8 101.1 128.4 174.2 164.8 2.3 5.9 7 10.8 12.9 14 5.6 2.9 11.4 3.9 17.2 3.3 1.5 14.9 21.4 25.4 32.6 31.7 20.1 11.3 42.3 17.8 65.3 19.5 0.4 0 0.8 0 1.2-0.1 9.5 6.9 19.4 13 30 18.2 1.9 1 4.9 0.1 6.1-1.6 41.3-59 84.7-116.5 130.1-172.4 1.3-1.6 1.5-4.7 0-6.3-6.2-6.7-12.3-13.4-18.5-20.1-0.8-0.8-1.7-1.3-2.6-1.6 2.6-3.6 5.2-7.1 7.8-10.7 12.3 2.3 22.6-5.9 31.6-13.4 12.7-10.6 24.4-22.5 35-35.1 22-26.1 39.7-55.4 56.8-84.8 17.9-30.7 35.3-61.7 56.4-90.4 5.4-8.2 13.4-19.2 4.6-27.8zm-592.8-349.3c16.1 6.6 29.6 22.1 34.6 42.3 2.4 9.8 2.6 19.7 0.6 29.1-10.2-24.6-22.2-48.5-35.6-71.5 0.2 0 0.3 0.1 0.4 0.1zm36.2 102.6c-1.7 3.8-3.4 7.6-5.1 11.4-14-39.7-32-76.4-56.4-111.2-3.4-4.9-6.9-9.6-10.6-14.3-0.3-1.7-1.5-3-2.9-3.7-21.1-26.6-45.4-50.3-71.8-71.6 8.2-3.4 16.2-7.3 24-11.5 54.2 57.9 96 126.2 122.8 200.9zm-150.9-91.9c-10.7-20.1-22.9-39.2-36.7-56.8-6.9-8.8-14.7-17.1-23.1-24.7 7.3-0.6 14.5-1.6 21.8-3.1 10.5-2.1 20.8-5.1 30.8-8.7 27.6 21.7 52.8 45.9 74.6 73.3-11.6 24.3-44.3 31.4-67.4 20zm35.9 113.4c-0.4 0.3-0.9 0.7-1.2 1.2-18.4 26.1-38 51.4-58.7 75.7-27.2-14.7-55.3-27.4-84.4-38-0.9-87-19.7-172.9-55.8-252-1-2.2-2.9-3.1-4.7-3-1.7-3-3.4-5.9-5.1-8.8 54.9-8.6 104.2 26.6 135.5 69.4 33.5 46.1 56.4 101.5 74.4 155.5zm96.9-298.1c-23.7 32.7-47.5 65.3-71.5 97.8-7.3-8.8-14.8-17.5-22.6-25.9 0.4-0.9 0.6-1.9 0.6-2.8 14.9-9.1 29.1-19.6 42.1-31.1 45.2-39.9 77.9-91.3 106.1-144.1 7.7-1 15.2-4.3 21.5-9.4 14.6-11.8 20.3-30.7 22.7-48.6 0.1-0.8 0-1.4-0.1-2.1 15.6-18.8 25.3-42.4 27.3-67.3 3.3-42.5-15.2-89.1-54.3-109.6-14.4-7.5-29.3-11-44.4-11.5 4.6-25.7 3.2-51.8-0.5-77.5 20.7-3.9 43.9-8.7 65.3-16.9 25.4 23.8 50.8 47.7 78.9 68.3 20.6 15.1 44.7 32.1 70.2 39.3-79.1 114.8-159.5 228.6-241.3 341.4zm31.8-113.5c-0.2 0.2-0.5 0.4-0.7 0.6-11.9 12.9-34.1 25-47.9 8.3 3.8-3.8-2.1-10.6-7.3-7.5-3.2 1.9-6.6 3.7-10.1 5.3-1.6-0.1-3.2 0.5-4.1 1.8-7.8 3.2-16.3 5.5-24.6 6.4-1.2-0.9-2.8-1.3-4.6-0.8-1.5 0.4-3 0.8-4.5 1.1-14.6-0.5-28.2-6.2-37-20.3 6.3-2 2.3-11.6-4-9.6-37.1 11.7-75.2-7.6-88.9-43.4 2.5-3.4-1.1-9.7-6.4-8-29.1 9.5-58.5-27.6-68.4-50.5-12.1-28-10-59.5 3.9-86.4 34.8 36.5 80 64.5 128.9 77.1 0.4 0.1 0.8 0.2 1.2 0.2 8.7 36.8 37.1 65.9 69.6 85.8 38 23.3 83.9 37.7 127.2 20.1 11.9-4.8 22.7-11.6 32.1-19.8-4.5 15.5-13.7 31.8-27.8 36.1-1.8-3-7.4-3.8-9.6 0.4l-0.3 0.6c-3-0.3-6.1-1-9.4-2.3-4-1.3-7 1.7-7.3 4.8zm-76 42.2c-12.8 41.1-48.6 72.3-93.6 76.6-29.4 2.8-57.9-5.5-72.2-33-9.5-18.1-16.2-40.3-12.3-60.5 55.4 26.7 118.8 32.5 178.1 16.9zm-175.2-27c1.4-3.5 3.2-6.9 5.5-10.2 48.2 6.2 94.6 30.8 143.6 20.3 10.2 0.1 20.6-2 30.7-5.4-0.4 3.6-0.9 7.2-1.6 10.8-59.1 17.2-123 11.4-178.2-15.5zm46.9-245.5c1.4-42.1-21.4-77-50.8-78-13.5-0.4-26.4 6.2-36.6 18.8 3.1-7 6.9-13.6 11.2-19.5 13.3-18.1 30.5-27.8 48.2-27.2 5.7 0.2 11.2 1.4 16.4 3.5 28.9 11.9 49.3 51.8 47.8 98.4-1.3 38.4-17.1 71.2-39.2 87.1-10.3-4.3-20.3-9.4-30-15.1 5.8-3.6 11.2-8.7 16-15.1 10.3-13.9 16.3-32.8 17-52.9zm-84.5-52.8c9.3-12.7 21.2-19.4 33.6-19 3.9 0.1 7.7 1 11.3 2.5 20.2 8.3 34.5 36.4 33.4 69.1-0.6 18.9-6.2 36.5-15.8 49.5-5 6.9-10.8 12-17.1 15.1-21.7-13.5-41.5-30.1-58.3-48.6l-0.1-0.1c-1-7.8-1.5-15.9-1.2-24.1 0.2-6 0.8-11.9 1.7-17.6 2.7-10.1 6.9-19.2 12.5-26.8zm772.3-257.7c12.9 29.4 2.2 58.4-12.7 84.8-13.9 24.5-35.1 48.3-64.9 51-32.1 2.8-54.3-24-64.1-51.4 3.3-0.4 6.5-1.1 9.7-1.9 30.8-8.1 54.3-32.8 68.7-60.3 13.4-25.7 19.8-56.4 13.3-85 23.5 11.9 39.8 39.7 50 62.8zm-62.4-68.5c9.3 27.5 3.5 58.2-9.1 83.7-12.1 24.5-32.4 46.9-58.9 55.8-26 8.7-57 1.7-73.5-20.9l-0.3-0.3c6.2-6.3 11-13.9 13.6-22.8 0.5-1.8 0.9-3.5 1.2-5.2 1.2 0.2 2.4-0.1 3.6-1 37.6-28.2 80.2-63 79.1-114.8-0.2-8.1-1.7-15.8-4.4-23 23 6.7 41.1 25.7 48.7 48.5zm-81.7-73.9c18.5 12.4 28.2 32.1 26.9 54.3-2.5 44-38.7 73.4-71.4 98-0.7-19.7-12-38.1-26.3-51.9-5.7-5.5-11.8-10.9-18.3-16.1 20.7-24.5 42.6-54.2 34.9-88.1-1-4.5-2.6-8.7-4.6-12.6 20.6 1.2 41.5 4.7 58.8 16.4zm-226.3 6.7c19.5-23.8 42.9-45 74.2-50.6 27.8-5 62.3 1.5 80 25.5 24.2 32.8-3.5 70.5-25.2 96.3-16.8-12.4-35.3-23.1-53.8-30-11.6-4.3-24.1-6.8-36.4-6.8 2.7-7.8 4.4-15.8 5.1-24 0.6-6.6-9.8-7.9-10.3-1.2-0.7 8.3-2.4 16.3-5.3 24.1-0.2 0.6-0.3 1.3-0.3 1.8-13.5 1.7-26.4 6.6-37.3 15.8-5.1 4.3 1.2 12.6 6.3 8.3 25.8-21.6 61.1-16 89-1.9 15.5 7.8 29.9 18 43.8 28.4 11.3 8.4 22.6 17.6 30.7 29.3 20.1 28.8 10.3 65.9-24.2 77.3-35 11.5-69.9-9.3-96.4-30.2-5.3-4.2-11.6 4.1-6.4 8.2 24.4 19.3 52.6 36.2 84.7 35.3 14.2-0.4 28.6-5 40.1-13.3 14 19 36.9 28.7 60 28.5 0 0.6 0.1 1.2 0.3 1.9 9.7 28.4 31.4 55.3 62.6 58.9-28.2 45.8-60.6 93.7-114.8 109.3-7.7-16.1-24.8-28.5-39.4-37.7-5.6-3.6-12 4.6-6.4 8.2 19.4 12.3 52.3 35.7 35.1 62.6-10.1 15.8-27.2 19.2-44.2 17-1.4-3.2-5.9-5-8.5-1.6-6.5-1.6-12.7-3.8-18.3-6.4-48.4-22-88.4-60.1-126.8-96.1 25-11.2 46.5-28 56.9-54.4 21.2-53.7-44-81-83-96.5-7.9-3.1-15.8-6-23.8-8.6 0 0 0-0.1 0.1-0.1 18.3-64.7 49.3-125.4 91.9-177.3zm-858.1 468.6c-31.1-32.5-41.5-80.9-31.6-124.4 11.6-50.9 50.4-91.9 95.6-115.8 1.8 0.2 3.5-0.4 4.4-2.4 2-1.5 2.4-3.9 1.8-5.9 35.7-122.8 124.3-228.7 240-283.7 60.2-28.6 127.7-43.9 194.4-38.1 70.3 6 139.9 36.5 187.3 89.6 44.3 49.7 66.8 118 56.5 184.1-94.3-27.1-196.5-22.9-288.3 13.1-55.8 21.9-107.1 55-150 96.9-4.7 4.6 1.5 12.9 6.3 8.3 70.2-68.3 162.3-112.6 259.9-123.2 53.1-5.7 107.2-1.5 158.9 12 4.3 1.1 8.6 2.4 12.9 3.6 1.2 1.6 3.5 2.2 5.6 1.7 18.9 5.9 37.4 13 55.4 21.3 20 9.3 46.2 20.8 55 42.7 11.7 29.2-16.2 57.8-38.9 71.8-26.1 16.2-56.9 22.1-86.7 27.7-0.2-1.2-0.4-2.5-0.6-3.7-1.4-8.4-2.7-17.1-4.4-25.6l3.4 3.4c2.9 3 7.2 1.7 8.9-0.9 2-0.7 3.4-2.6 2.7-5.3-5.9-25.6-18.1-85-55.9-78-9 1.7-14.8 7.6-18.9 15-20.8-6.3-43.6-8.8-63.9-10.4-18.6-1.4-37.3-1.2-55.9 0.5 41.6-15.1 84.2-26.6 129.4-28.9 42.5-2.2 85.2 2.8 126.1 14.5 6.4 1.8 10.4-7.8 3.9-9.6-69.7-19.8-143.6-20.8-213.7-2.1-23.9 6.4-47 14.7-69.9 23.8-9-6.1-19.7-10-32.4-10.5-35.6-1.4-60.4 22.9-74.4 52.5-0.7 1-1.5 1.9-2.2 2.9-0.1 0.1-0.2 0.3-0.2 0.4-8.5 3.3-17 6.4-25.6 9.3-36.6 12.5-74.7 21.6-113.4 22.4-1.1-2.3-3.5-3.8-6.5-2.5-1.9 0.8-3.7 1.7-5.6 2.6-1.4 0.1-2.6 0.7-3.4 1.6-45.2 21.4-87.1 49-124.5 82.1-0.1-0.1-0.3-0.2-0.4-0.2-20.9-10.6-47.8-15.2-70.8-11.5-41.3 6.5-62 41.4-70.3 78.9zm724.1-195.8c-0.7-1.2-1.4-2.3-2.1-3.5 0.1-0.1 0.3-0.1 0.4-0.2 0.4 0.9 0.8 1.7 1.2 2.6 0.1 0.3 0.3 0.7 0.5 1.1zm-24.8-13.8c-0.5 0.7-1.1 1.4-1.6 2.2 0.2-0.8 0.5-1.6 0.7-2.4 0.2 0 0.3 0 0.5 0.1 0.2 0 0.3 0.1 0.4 0.1zm-269.7 34.3-0.3 0.3c0-0.1 0-0.1 0.1-0.2 0 0 0.1-0.1 0.2-0.1zm-191.7 182c6.1 17.3 22.4 30.3 40.6 31.8 0 10.9-1.5 22.2-7.5 31.4-7.5 11.6-20.8 17.6-34.1 12.2-21.9-9-32.5-34.7-39.7-55.4-10.7-30.3-19.2-68.2-46.4-88.3 36.1-31.5 76.2-57.8 119.5-78.3-4.5 39.6 8.6 74.5 31.7 106.6 6.4 8.9 13.2 19.2 12.3 30.7-0.8 10-6.6 19.5-14.8 25.2-4.3 3-8.9 4.7-13.5 5.3-1.4-0.5-3-0.4-4.5 0.3-14.7-0.2-28.9-10.8-34.1-25.4-2.2-6.5-11.7-2.4-9.5 3.9zm-166.2 158.5c-47.6-30.9-70.7-84.4-65.1-140.4 2.6-26.7 9.6-56.6 29.5-76 13.1-12.7 30.7-18.6 48.8-18.7 29-0.2 58.8 9.4 75.6 34.1 24.7 36.2 23.2 87.4 57.2 117.7 14.5 13 35 17.5 51.3 5.1 15.5-11.7 19.6-30.7 19.7-49.1 18.4-3.2 33.5-19.6 35.7-38.1 3-25.1-19.5-43.3-30.2-63.6-12.4-23.7-16.9-50.6-13.5-77.1 46.9-1 92-13.3 135.8-29.6-1.8 5.3-3.2 10.7-4.4 16-0.4 1.6 0 2.9 0.8 3.9 1.4 3.6 7.6 4.9 9.8 0.2 12.4-26.5 43.5-34.1 70.1-27.6 29.4 7.2 52.7 28.3 74.7 48 3.2 2.9 6.9 0.5 7.9-2.7 3.1-0.5 5.7-3.3 3.8-6.8-1.4-2.5-2.7-5-4.1-7.6-6.1-22.8-14.9-49-30.5-67.6 19.4-2.3 38.9-3 58.4-1.9 21.6 1.3 44.9 3.8 66.3 10.2-1.5 4.3-2.7 8.6-3.8 12.6-6 22.4-10.2 45.1-12.5 68.2-0.2 2.4 1 4.1 2.6 5 2.4 2.1 6.8 2.2 8.7-1.5 6.8-13.6 15.9-30.2 28.5-39.3 9.5-6.9 18.8-4.9 27.2 0.3 3.5 13.6 5.7 27.6 8 41.4 4.8 28.8 7.3 57.8 1.9 86.6-4.1 0.2-8.1 0.6-12.2 1.2 1-7.2 1.3-14.5 0.9-21.8-1.3-23.9-9.9-44.8-22.6-54.7-6.5-5.1-13.7-7-21-5.6-10.8 2.1-20.5 11.3-27.3 25.9-6.6 14.2-9.8 31.9-8.8 49.9 0.6 10.8 2.6 21 5.9 29.9-5.3 2.4-10.5 4.8-15.6 7.2-6 2.8-2.1 12.4 4 9.6 30.9-14.6 64-30 98.4-31 1.3 0.5 2.9 0.5 4.3 0 6.8 0.1 13.6 0.7 20.5 2 43.2 8.4 69.3 47.9 72.4 90 3 40.5-15.9 80.2-50.6 101.6-37.3 23-80.7 16.1-118-3.1-41.4-21.4-83-58.5-82.5-108.8 0.1-6.6-10.3-7.9-10.3-1.2 0 4.6 0.2 9.1 0.8 13.4-8.1-2.2-16.1-4.8-24-7.8 22-17.8 37.5-51.1 38.8-89.6 1.9-58.4-29.6-107.1-70.2-108.4-19.9-0.7-38.9 9.9-53.5 29.8-14.3 19.5-22.7 45.7-23.6 73.8-0.3 7.9 0.1 15.7 1 23.2-2 1-3.4 3-3 5.2-1 0.4-2 1.2-2.6 2.4-17.2 32.4-18 72-0.3 104.3 13 23.7 40.7 52.9 70.3 49 14.3 38.4 53.2 59.4 92.4 52.2 5.3 9.3 12.1 15.9 19.8 20.4-37.6-0.9-74.8-18-111.8-23-2-2-5.5-2.7-7.9 0.2-22 26.7-15.5 63-1.6 91.9 6.4 13.3 15 25.3 28.1 32.7 13.6 7.6 29.8 10.1 45.2 10.1 63.5-0.2 115.7-51.1 118.7-114.1 1-0.5 2.1-1 3.1-1.5 17.8 24.1 48.6 10.9 65.2-7.1l0.3-0.3c1.1 0.3 2.3 0.5 3.5 0.7-44.5 82.2-104.8 164-198.3 191.8-16.3 4.9-32.8 7.3-49.3 7.7-30.9-23.8-68.8-37.5-108.4-29.6-41.9-62.9-106.8-100.6-178.4-121.1-17.9-22.8-31.7-48.5-38.4-77.3 0.1 0 0.1-0.1 0.2-0.1 5.3-4.2-1.1-12.4-6.3-8.3-28.9 22.7-78.6 4-105.5-13.4zm613.1-208.9c-0.5-10.1-4.1-18.7-9.6-23-2.9-2.2-6.1-3.1-9.4-2.5-9.5 1.9-16.6 16.2-15.7 32 0.4 7.5 2.5 14.2 5.8 19 1 1.4 2.1 2.6 3.2 3.6-3.2 1.3-6.4 2.7-9.6 4.1-3.2-8.4-5.1-18.3-5.7-28.6-0.2-3.7-0.2-7.5 0-11.2 0.9-6.7 2.7-12.8 5.2-18.2 4.2-8.9 9.9-14.5 16.2-15.7 1.9-0.4 3.9-0.3 5.8 0.1 11.1 2.7 19.5 18.6 20.6 38.7 0.4 6.7-0.2 13.3-1.5 19.5-3.1 0.9-6.1 1.9-9.1 2.9v-0.1c2.9-5.8 4.2-13.1 3.8-20.6zm-8 18.4c-1 2.1-2.1 3.8-3.4 5.1-2.6 0.9-5.1 1.9-7.7 2.9-2.1-0.5-4.2-2-6-4.6-2.8-4-4.5-9.7-4.8-16.1-0.7-12.9 4.4-24.5 11.4-25.8 1-0.2 1.9-0.2 2.9 0.1 5.7 1.4 10.2 10.1 10.7 20.6 0.4 6.5-0.7 12.8-3.1 17.8zm19.7-20.7c-0.9-17.2-7.2-32.3-16.4-39.5-4.8-3.7-10.1-5.1-15.4-4.1-5.8 1.1-11.3 5.1-15.7 11.4 0.9-2.6 1.9-5.2 3.1-7.6 6-12.9 14.4-20.9 23.6-22.7 2.8-0.6 5.7-0.5 8.5 0.2 16 3.9 28.2 26.7 29.7 55.4 0.4 7.4 0 14.7-1 21.9-5.8 1-11.7 2.3-17.5 3.9 1-6.2 1.4-12.6 1.1-18.9zm-490.6 305.7c-41.2-10.2-84.2-15.1-125.9-16.1-2.9-19.8 4.3-39.5 20.1-52.5l0.3-0.3c24.6 9 52.2 12.6 73.9 1.6 6.3 24.5 17.3 46.9 31.6 67.3zm-324.6 264.9c-34.4 40.1-73.9 77.6-118.1 106.7-20.9 13.8-44.7 22.7-69 11.9-21.4-9.5-35.6-28.6-48.1-48 22.6 2.8 46.4-1.7 64.9-15.3 21-15.4 33-43.9 25.1-69.4-8.4-27.2-40.7-43.5-67.1-31.4-6.1 2.8-2.1 12.4 4 9.6 30.3-13.9 59.2 16 54.5 46.1-5.1 32.4-36.3 50.2-66.9 50.9-7.3 0.2-14.8-0.6-22.1-2.2-1.3-1.3-2.9-1.6-4.4-1.1-22.2-6.1-42.1-20.6-50.7-42.7-11.2-28.5-2.6-61 5.1-89.3 1.7-6.4-7.9-10.4-9.6-3.9-7.4 27.4-15.1 56.9-8.6 85.2-31.3-11.8-39.7-47.8-38-78.4 1.9-33.2 9-66.6 16.7-99 1.5-6.5-8.8-7.7-10.3-1.2-8.7 36.7-18 76-16.9 114 0 0.9 0.1 1.9 0.1 2.8-32.4-17.5-20-69.6-13.9-98.1 7.4-34.8 19.3-72.1 41.2-100.7 21.2-27.7 52.5-40 86.1-45.1 35.2-5.3 71.4-5.7 106.8-2.7 40.6 3.5 80.5 12 119 25.1 35 33.9 35.3 86.3 36.6 131.7 1.4 47.8 1.6 96.7-13 142.6-1.3 0.2-2.5 0.8-3.4 1.9zm58.4-8.4c-11 12.7-30.6 20.3-46.1 12.2 16.3-49.5 15.7-101.8 14.1-153.4-1.4-47.5-3.9-99-39.9-134.2l-0.3-0.3c26.8-7.7 55.4 7.3 73 28 20.3 24 29.7 55.5 31.7 86.4 2.4 36.8-4.8 73.7-12.1 109.6-3.6 18.1-8 37.4-20.4 51.7zm200.7-11.4c-0.5-1.7-1.8-3.1-3.9-3.7-57.5-14.2-116.4-15.2-174.4-3.7 3-7.9 5.1-16.2 6.9-24.4 3.8-17.2 7.1-34.7 9.8-52.1 8.3-54.3 6.7-118.3-31.8-161 41.8-3.5 85.1-6.3 128.2-5.8 0.4 0.1 0.9 0.1 1.3 0 94.3 1.3 187.7 18.7 262.6 79.7 28.8 23.4 52.7 52.4 69 85.8 0.8 1.7 2.2 2.6 3.7 2.9 15.5 36.1 27.5 73.6 35.8 111.9-53 42.6-113.2 84.9-184 85.1-32.1 0.1-63.9-9.3-88.5-30.5-20.9-18-35.4-43.5-37.2-71.1 1-2.5 2.2-5.1 3.5-7.5 1.4-2.3 0.6-4.3-1-5.6zm-450.1 555.6c6.5-17.6 14.8-34.7 22.3-52 7.7-17.8 15.2-35.7 23.2-53.3 3.4-7.6 7.2-15.9 13.9-21.3 7.1-5.8 17.8-7.1 24-0.1-32.5 54.4-52.1 116.2-70.4 177-22.3-6-19-34-13-50.3zm-35.6 418.2c-8.6-15.8-12.6-34.7-16.1-52.2-7-34.6-8.7-70.2-5.8-105.4 5.7-67.4 28.4-132.8 64.5-190-0.6 2.1-1.3 4.2-1.9 6.3-20.4 67.6-38.4 137.5-41.7 208.3-2.6 54.6 6.8 112.3 43.2 154.2-16.8 7.2-34.3-6.8-42.2-21.2zm208.3 27.8c-44.1 35.3-105 36.4-147.4-2.1-44.7-40.6-54.7-103.4-51.5-160.9 3.6-65.4 19.5-130 38-192.6 10.6-35.7 21.8-71.2 33.9-106.5 12-35.1 25.6-69.7 44.4-101.7 0.8 0.1 1.6-0.1 2.5-0.5 37.6-17.5 82-16.2 118.4 3.4-3.9 4.4-7.1 10-9.8 15-19.6 36.3-38.8 73.2-51.9 112.4-12.2 36.7-18.7 75.5-13.9 114.2 4.5 36.5 18.4 71.2 36.6 102.9 9.1 15.8 19.2 30.9 30.1 45.5 4.8 6.4 9.8 13.7 15.6 20 11.9 54-0.3 115.1-45 150.9zm980.1-278.1c-7.9-2.2-14.4-8.8-12.9-17.4 1.1-6.6-9.1-7.8-10.3-1.3-71.4-36.9-130.7-95.1-168.7-166.1-3.1-5.9-12.7-1.9-9.6 4 0.1 0.1 0.1 0.3 0.2 0.4-115.3 48.7-246.7 54.7-365.8 16.1-6.3-2-10.3 7.5-3.9 9.6 57.8 18.7 118.4 27.3 178.7 25.8-92.3 100.4-211.5 172-342.7 208.9-35.2 9.9-70.8 18.3-105.5 30-16.9 5.7-33 13.6-49.8 19.1-9.4 3.1-19.7 4.3-28.5-1.3-2.5-1.6-4.7-3.6-6.8-5.7-0.3-1.1-0.5-2.2-0.8-3.3-0.8-2.9-3.3-4.2-5.6-4.1-2.2-2.8-4.3-5.7-6.3-8.4-41.2-53.9-74.1-117.9-69.8-187.5 2.6-41 16.3-80.3 33.2-117.4 8.6-18.9 18.1-37.3 27.9-55.6 3.9-7.3 7.6-17.9 14.3-23.4 2.8 1.1 5.7-0.5 6.9-2.7 5.6 0.1 10.5 5.4 12.6 10.7 1.9 4.8 2.4 10.1 3.1 15.1 0.3 2.1 1.4 3.4 2.9 3.9 1.1 2.2 3.5 3.8 6.5 2.7 2.1-0.8 4.2-1.6 6.3-2.3 0.3-0.1 0.5-0.2 0.7-0.4 30.2-11.6 61.4-19.6 93.5-23.8-1.7 5.2 7 8.3 10.1 2.9 10.6-18.4 22.2-36.1 34.7-53.2 9.7 33.6 26.4 64.9 50.2 90.8 4.5 4.9 12.8-1.4 8.3-6.3-43.8-47.7-61.7-112.8-57.5-176.7 2.3-35 11.2-68.5 22.8-101.4 10.9-31 20.7-61.2 20.5-94.4-0.2-24.6-3.8-50.4 0-74.7 10.5 35.5 39 65 74 78.7 53.8 21 114.3 7.7 163.7-18.6 28.8-15.4 55.1-34.8 80.6-55.2 7.4 37.2 11.3 75.2 11.5 113.2 0 0.9 0.2 1.7 0.6 2.4-0.5 2.2 0.3 4.6 3 5.6 31 11.2 60.9 24.7 89.8 40.5 2.4 1.3 4.4 0.5 5.6-1.1 0.8-0.3 1.5-0.8 2.2-1.5 21.1-24.7 41.1-50.4 59.8-76.9 3.1-0.3 6.3-3.3 5-7.2-11-33.6-23.9-68.2-40.1-100.9 24.6 6.4 53.8-2.7 67.2-24.7 2.3 3 4.5 6.1 6.7 9.3 24.5 34.9 42.3 71.9 56.1 111.9-1 1-1.5 2.4-1.1 4.2l15.9 66.6c-25.2-7.4-51.4-11.5-77.3-9.1-41.3 3.8-80 24-116 43.4-42.3 22.9-82.4 49.6-120.1 79.5-5.2 4.2 1.1 12.4 6.3 8.3 32.5-25.9 66.9-49.4 103-69.9 34.4-19.6 71.4-40.2 110.5-48.3 41.1-8.5 83 1.7 121.3 16.9 38.9 15.4 75 37.5 106.4 65.1 16 14.1 30.8 31.1 50.9 39.4 8.6 3.6 17.7 4.9 27 4 10.8-1 24.7-5.9 34.1 1.7-0.3 1-0.3 2.1 0.2 3.3 0.7 1.7 1.3 3.4 1.9 5.1-0.3 1.8 0.4 3.4 1.6 4.5 18.3 54.8 11.3 114.3-5 168.9-9.8 32.9-22.7 64.7-35.4 96.5-11.9 29.8-24.2 59.8-41.9 86.7-9.1 13.9-19.7 28.7-33.2 38.6-6.9 4.8-15.4 8.7-23.7 6.5zm262.5-96.9c-43.5 53.7-85.2 108.9-124.9 165.5-8.5-4.5-16.5-9.5-24.2-15.1 0.3-0.7 0.5-1.4 0.8-2.1s0.4-1.4 0.3-2c46.5-52.5 90.6-107.1 132.2-163.6 0 0 0 0.1 0.1 0.1 5.2 5.8 10.4 11.5 15.7 17.2zm-83.5 53.8c-24.3 30.2-49.3 59.8-75 88.7-0.1 0.2-0.2 0.3-0.4 0.5-3.2-1.5-6.5 1.2-7 4.3-13.7-2-27-5.7-39.8-11.5-8-3.6-15.7-8-22.9-13-5.6-3.9-16-10-15.4-17.9 2.4-1 4.7-2.1 6.9-3.5 28.5-17.3 47.2-53.2 61.1-82.2 17.5-36.2 32-74.4 45.6-112.2 12.7-35.3 23.2-71.7 26.8-109.2 3.3-34.6 0.6-69.8-10.6-102.7 19.9-49.9 71-83.3 125.1-77.8 27.2 2.8 53.5 14.4 73.4 33.3 21.1 20.1 33.2 47.6 53.2 68.7 0.5 0.6 1.1 1 1.7 1.3-64.3 117.3-139 228.9-222.7 333.2zm252.8-319.7c-7.8 10.6-15.2 21.5-22.2 32.6-15.1 24-28.7 48.8-43.2 73.1-13.4 22.6-27.7 44.8-44.3 65.2-8.7 10.7-18 20.9-28.2 30.2-6.8 6.2-16.2 16.4-26.2 18.5 31.3-44 61.2-89 89.4-135.1 19.2-31.4 37.6-63.3 55.4-95.6 5.5-1.1 11-2.4 16.5-3 3.9-0.5 9.3-0.2 8.6 5.6-0.3 2.1-4.7 7-5.8 8.5z"/>
 <path d="m1249.2 1093.7c0 0.5 0.1 0.9 0.2 1.4 0.6 6.7 10.9 5.2 10.3-1.4-5-57.9-61.2-95.4-116.7-80-6.4 1.8-2.4 11.4 4 9.6 42.9-11.9 85.2 13 98.4 52.8-15.1-12.2-33.8-18.3-53.8-17.7-6.7 0.2-5.2 10.5 1.4 10.3 21.1-0.7 40.9 8 54.7 23.9 0.5 0.5 1 0.8 1.5 1.1z"/>
 <path d="m1570.1 1570.1c-7.5 14.8-9.4 32.3-5.1 49.5 4.2 17.1 14 31.8 27.6 41.4 3.8 2.7 7.9 4.9 12 6.6 10.6 4.4 21.9 5.3 32.9 2.6 15.2-3.8 27.8-14.1 35.4-29 7.5-14.8 9.4-32.3 5.1-49.5-8.8-35.6-41.3-58.3-72.5-50.6-15.1 3.7-27.7 14-35.4 29zm37.5-21c9.4-2.3 19-1.4 27.8 2.3 16.1 6.6 29.6 22.1 34.6 42.3 3.8 15.2 2.2 30.7-4.5 43.7-6.5 12.8-17.2 21.6-30 24.8s-26.3 0.4-38.1-7.9c-11.9-8.4-20.5-21.4-24.3-36.6s-2.2-30.7 4.5-43.7c6.5-12.9 17.1-21.7 30-24.9z"/>
 <path d="m1547.3 1030.6c3.8 5.9 8.6 10.2 13.9 12.4 2.6 1.1 5.3 1.6 8.1 1.7 8.6 0.3 16.7-4.2 22.9-12.6 5.9-8.1 9.4-18.9 9.8-30.4 0.8-24.3-12.6-44.6-29.8-45.1-17.2-0.6-31.9 18.8-32.7 43.1-0.4 11.5 2.4 22.5 7.8 30.9zm24.7-67.8c2.1 0.1 4 0.5 5.9 1.3 10.8 4.4 18.4 19.6 17.8 37.4-0.3 10.3-3.4 19.9-8.6 27-4.9 6.7-11.2 10.3-17.6 10.1s-12.5-4.2-16.9-11.2c-4.7-7.4-7.1-17.1-6.8-27.5 0.6-21 12.4-37.6 26.2-37.1z"/>
 <circle class="st0" cx="1589.6" cy="969.1" r="18.7"/>
 <circle class="st0" cx="1765.3" cy="962.5" r="12.5"/>
</svg>
